<?xml version="1.0" encoding="utf-8"?>
<!-- Generator: Adobe Illustrator 16.0.0, SVG Export Plug-In . SVG Version: 6.00 Build 0)  -->
<!DOCTYPE svg PUBLIC "-//W3C//DTD SVG 1.1//EN" "http://www.w3.org/Graphics/SVG/1.1/DTD/svg11.dtd">
<svg version="1.1" id="レイヤー_1" xmlns="http://www.w3.org/2000/svg" xmlns:xlink="http://www.w3.org/1999/xlink" x="0px"
	 y="0px" width="149.999px" height="149.999px" viewBox="0 0 149.999 149.999" enable-background="new 0 0 149.999 149.999"
	 xml:space="preserve">
<rect x="0.001" y="0" fill-rule="evenodd" clip-rule="evenodd" fill="#DFDFDF" width="149.999" height="149.999"/>
<rect x="0.001" y="0" fill="none" stroke="#000000" stroke-width="2" stroke-linejoin="round" stroke-miterlimit="10" width="149.998" height="149.999"/>
<path fill-rule="evenodd" clip-rule="evenodd" d="M66.001,75L66.001,75C66,70.029,70.03,66,75,65.999l0,0c4.971,0,9,4.03,9,9l0,0
	l0,0C84,79.969,79.971,84,75,84l0,0l0,0C70.03,84,66,79.97,66.001,75L66.001,75L66.001,75z"/>
<path fill="none" stroke="#000000" stroke-width="2" stroke-linejoin="round" stroke-miterlimit="10" d="M66,74.999L66,74.999
	c0-4.97,4.029-9,9.001-9l0,0c4.97,0,9,4.03,8.999,9.001l0,0l0,0c0,4.969-4.029,9-9,8.999l0,0l0,0C70.029,83.999,66,79.969,66,74.999
	L66,74.999L66,74.999z"/>
<path fill-rule="evenodd" clip-rule="evenodd" d="M137.929,8.999L137.929,8.999c0-1.657,1.343-3,2.999-3l0,0
	c1.657,0,3.001,1.343,3,3l0,0l0,0c0.001,1.657-1.342,3-2.999,3l0,0l0,0C139.272,12,137.929,10.657,137.929,8.999L137.929,8.999
	L137.929,8.999z"/>
<path fill="none" stroke="#000000" stroke-width="2" stroke-linejoin="round" stroke-miterlimit="10" d="M137.928,8.999
	L137.928,8.999c0-1.657,1.343-3,2.999-2.999l0,0c1.657,0,3,1.343,3,3l0,0l0,0c0,1.657-1.342,3-2.999,3l0,0l0,0
	C139.271,12,137.927,10.656,137.928,8.999L137.928,8.999L137.928,8.999z"/>
<path fill-rule="evenodd" clip-rule="evenodd" d="M138,141.128L138,141.128c0-1.657,1.343-3,2.999-3l0,0c1.658,0,3,1.344,3,3l0,0
	l0,0c0,1.657-1.342,3-2.999,2.999l0,0l0,0C139.343,144.128,138.001,142.785,138,141.128L138,141.128L138,141.128z"/>
<path fill="none" stroke="#000000" stroke-width="2" stroke-linejoin="round" stroke-miterlimit="10" d="M137.999,141.127
	L137.999,141.127c0-1.657,1.344-3,3-3l0,0c1.657,0,3,1.344,3,3l0,0l0,0c-0.001,1.657-1.343,2.999-3.001,2.999l0,0l0,0
	C139.342,144.127,137.999,142.785,137.999,141.127L137.999,141.127L137.999,141.127z"/>
<path fill-rule="evenodd" clip-rule="evenodd" d="M6.001,141.128L6.001,141.128c0-1.657,1.342-3,2.999-3l0,0c1.656,0,3,1.344,3,3
	l0,0l0,0c0,1.657-1.344,2.999-2.999,3l0,0l0,0C7.343,144.127,6.001,142.785,6.001,141.128L6.001,141.128L6.001,141.128z"/>
<path fill="none" stroke="#000000" stroke-width="2" stroke-linejoin="round" stroke-miterlimit="10" d="M6,141.128L6,141.128
	c0-1.657,1.343-3,3-3l0,0c1.656,0,3,1.343,3,3l0,0l0,0c0,1.657-1.344,3-3,3l0,0l0,0C7.343,144.127,6,142.785,6,141.128L6,141.128
	L6,141.128z"/>
<path fill-rule="evenodd" clip-rule="evenodd" d="M6.001,8.999L6.001,8.999c0-1.657,1.343-3,3-3l0,0c1.656,0,2.999,1.344,3,3l0,0
	l0,0c-0.001,1.657-1.345,3-3,3l0,0l0,0C7.343,12,6.001,10.656,6.001,8.999L6.001,8.999L6.001,8.999z"/>
<path fill="none" stroke="#000000" stroke-width="2" stroke-linejoin="round" stroke-miterlimit="10" d="M6.001,8.999L6.001,8.999
	c0-1.657,1.342-3,2.999-3l0,0c1.656,0,3,1.343,3,3l0,0l0,0c0,1.657-1.344,3-3,3l0,0l0,0C7.343,11.999,6.001,10.656,6.001,8.999
	L6.001,8.999L6.001,8.999z"/>
<path fill-rule="evenodd" clip-rule="evenodd" fill="#B4B4B4" d="M14.254,74.999L14.254,74.999
	c0-33.586,27.198-60.814,60.747-60.814l0,0c33.55,0,60.746,27.228,60.747,60.814l0,0l0,0c-0.001,33.587-27.198,60.814-60.747,60.815
	l0,0l0,0C41.452,135.814,14.254,108.585,14.254,74.999L14.254,74.999L14.254,74.999z"/>
<path fill="none" stroke="#000000" stroke-width="2" stroke-linejoin="round" stroke-miterlimit="10" d="M14.254,74.999
	L14.254,74.999c0-33.586,27.197-60.814,60.746-60.814l0,0c33.549,0,60.747,27.228,60.747,60.815l0,0l0,0
	c-0.001,33.586-27.197,60.814-60.747,60.813l0,0l0,0C41.45,135.814,14.253,108.585,14.254,74.999L14.254,74.999L14.254,74.999z"/>
<path fill-rule="evenodd" clip-rule="evenodd" d="M66.001,75L66.001,75C66,70.029,70.03,66,75,65.999l0,0c4.971,0,9,4.03,9,9l0,0
	l0,0C84,79.969,79.971,84,75,84l0,0l0,0C70.03,84,66,79.97,66.001,75L66.001,75L66.001,75z"/>
<path fill="none" stroke="#000000" stroke-width="2" stroke-linejoin="round" stroke-miterlimit="10" d="M39.256,43.208
	L39.256,43.208c-0.667-1.516,0.02-3.287,1.536-3.954l0,0c1.516-0.669,3.286,0.02,3.954,1.536l0,0l0,0
	c0.669,1.516-0.019,3.287-1.535,3.955l0,0l0,0C41.695,45.413,39.923,44.725,39.256,43.208L39.256,43.208L39.256,43.208z"/>
</svg>
