<?xml version="1.0" encoding="utf-8"?>
<!-- Generator: Adobe Illustrator 16.0.3, SVG Export Plug-In . SVG Version: 6.00 Build 0)  -->
<!DOCTYPE svg PUBLIC "-//W3C//DTD SVG 1.1//EN" "http://www.w3.org/Graphics/SVG/1.1/DTD/svg11.dtd">
<svg version="1.1" id="レイヤー_1" xmlns="http://www.w3.org/2000/svg" xmlns:xlink="http://www.w3.org/1999/xlink" x="0px"
	 y="0px" width="150px" height="150px" viewBox="0 0 150 150" enable-background="new 0 0 150 150" xml:space="preserve">
<rect x="0.001" fill="#DFDFDF" width="149.999" height="150"/>
<rect x="0.001" fill="none" stroke="#000000" stroke-width="2" stroke-linejoin="round" stroke-miterlimit="10" width="149.999" height="150"/>
<path fill="none" stroke="#000000" stroke-width="2" stroke-linejoin="round" stroke-miterlimit="10" d="M66,74.999L66,74.999
	c0-4.97,4.029-9,9.001-9l0,0c4.97,0,9,4.03,8.999,9.001l0,0l0,0c0,4.968-4.028,9-9,9l0,0l0,0C70.029,84,66,79.968,66,74.999
	L66,74.999L66,74.999z"/>
<path d="M137.929,8.999L137.929,8.999c0-1.657,1.343-3,2.999-3l0,0c1.657,0,3.001,1.343,3,3l0,0l0,0c0.001,1.657-1.343,3-2.999,3
	l0,0l0,0C139.272,12,137.929,10.657,137.929,8.999L137.929,8.999L137.929,8.999z"/>
<path fill="none" stroke="#000000" stroke-width="2" stroke-linejoin="round" stroke-miterlimit="10" d="M137.928,8.999
	L137.928,8.999c0-1.657,1.343-3,2.999-2.999l0,0c1.656,0,3,1.343,3,3l0,0l0,0c0,1.657-1.342,3-2.999,3l0,0l0,0
	C139.271,12,137.927,10.656,137.928,8.999L137.928,8.999L137.928,8.999z"/>
<path d="M138,141.128L138,141.128c0-1.657,1.344-3,3-3l0,0c1.658,0,3,1.344,3,3l0,0l0,0c0,1.656-1.342,3-3,2.998l0,0l0,0
	C139.343,144.128,138.001,142.785,138,141.128L138,141.128L138,141.128z"/>
<path fill="none" stroke="#000000" stroke-width="2" stroke-linejoin="round" stroke-miterlimit="10" d="M138,141.126L138,141.126
	c0-1.656,1.344-3,3-3l0,0c1.656,0,3,1.345,3,3l0,0l0,0c-0.002,1.658-1.344,3-3.002,3l0,0l0,0
	C139.341,144.126,138,142.785,138,141.126L138,141.126L138,141.126z"/>
<path d="M6.001,141.128L6.001,141.128c0-1.657,1.342-3,2.999-3l0,0c1.656,0,3,1.344,3,3l0,0l0,0c0,1.656-1.344,2.998-2.999,3l0,0
	l0,0C7.343,144.126,6.001,142.785,6.001,141.128L6.001,141.128L6.001,141.128z"/>
<path fill="none" stroke="#000000" stroke-width="2" stroke-linejoin="round" stroke-miterlimit="10" d="M6,141.128L6,141.128
	c0-1.657,1.343-3,3-3l0,0c1.656,0,3,1.343,3,3l0,0l0,0c0,1.656-1.344,3-3,3l0,0l0,0C7.343,144.126,6,142.785,6,141.128L6,141.128
	L6,141.128z"/>
<path d="M6.001,8.999L6.001,8.999c0-1.657,1.343-3,3-3l0,0c1.656,0,2.999,1.344,3,3l0,0l0,0c-0.001,1.657-1.345,3-3,3l0,0l0,0
	C7.343,12,6.001,10.656,6.001,8.999L6.001,8.999L6.001,8.999z"/>
<path fill="none" stroke="#000000" stroke-width="2" stroke-linejoin="round" stroke-miterlimit="10" d="M6.001,8.999L6.001,8.999
	c0-1.657,1.342-3,2.999-3l0,0c1.656,0,3,1.343,3,3l0,0l0,0c0,1.657-1.344,3-3,3l0,0l0,0C7.343,11.999,6.001,10.656,6.001,8.999
	L6.001,8.999L6.001,8.999z"/>
</svg>
