<?xml version="1.0" encoding="utf-8"?>
<!-- Generator: Adobe Illustrator 16.0.3, SVG Export Plug-In . SVG Version: 6.00 Build 0)  -->
<!DOCTYPE svg PUBLIC "-//W3C//DTD SVG 1.1//EN" "http://www.w3.org/Graphics/SVG/1.1/DTD/svg11.dtd">
<svg version="1.1" id="レイヤー_1" xmlns="http://www.w3.org/2000/svg" xmlns:xlink="http://www.w3.org/1999/xlink" x="0px"
	 y="0px" width="121px" height="121px" viewBox="-222.5 374.5 121 121" enable-background="new -222.5 374.5 121 121"
	 xml:space="preserve">
<path fill="#B3B3B3" d="M-220.997,435L-220.997,435c0-32.618,26.414-59.063,58.998-59.063l0,0c32.582,0,58.996,26.445,58.996,59.063
	l0,0l0,0c0,32.618-26.414,59.061-58.996,59.063l0,0l0,0C-194.583,494.063-220.997,467.616-220.997,435L-220.997,435L-220.997,435z"
	/>
<g>
	<path fill="#040000" d="M-170.741,435.001L-170.741,435.001c-0.001-4.827,3.913-8.741,8.74-8.741l0,0
		c4.829,0,8.741,3.914,8.741,8.741l0,0l0,0c0,4.825-3.912,8.74-8.741,8.74l0,0l0,0
		C-166.828,443.741-170.742,439.827-170.741,435.001L-170.741,435.001L-170.741,435.001z"/>
	<path fill="none" stroke="#040000" stroke-width="1.9424" stroke-linejoin="round" stroke-miterlimit="10" d="M-196.715,404.125
		L-196.715,404.125c-0.648-1.473,0.02-3.192,1.492-3.842l0,0c1.473-0.648,3.191,0.021,3.84,1.493l0,0l0,0
		c0.65,1.473-0.019,3.192-1.491,3.841l0,0l0,0C-194.347,406.268-196.067,405.598-196.715,404.125L-196.715,404.125L-196.715,404.125
		z"/>
	<path fill="none" stroke="#040000" stroke-width="1.9424" stroke-linejoin="round" stroke-miterlimit="10" d="M-220.997,435.001
		L-220.997,435.001c0-32.618,26.413-59.063,58.996-59.063l0,0c32.582,0,58.998,26.445,58.998,59.063l0,0l0,0
		c-0.002,32.618-26.414,59.063-58.998,59.061l0,0l0,0C-194.584,494.063-220.998,467.617-220.997,435.001L-220.997,435.001
		L-220.997,435.001z"/>
</g>
</svg>
